<svg width="1333" height="288" viewBox="0 0 1333 288" fill="none" xmlns="http://www.w3.org/2000/svg">
<g clip-path="url(#clip0_1_2)">
<path d="M178.765 68.7273L150.995 236H120.448L65.3168 130.719H64.0099L46.4496 236H11.0838L38.8537 68.7273H69.8906L124.777 173.926H126.165L143.562 68.7273H178.765ZM197.465 236L225.235 68.7273H337.948L333.047 97.8856H255.7L249.166 137.744H320.714L315.813 166.902H244.265L237.731 206.842H315.405L310.504 236H197.465ZM413.535 68.7273L432.974 195.815H434.526L496.028 68.7273H535.232L449.799 236H404.224L374.249 68.7273H413.535ZM544.846 236L572.615 68.7273H685.328L680.428 97.8856H603.081L596.547 137.744H668.095L663.194 166.902H591.646L585.112 206.842H662.786L657.885 236H544.846ZM702.926 236L730.695 68.7273H766.061L743.192 206.842H814.904L810.003 236H702.926ZM850.674 236L878.444 68.7273H913.809L890.94 206.842H962.652L957.751 236H850.674ZM1129.51 68.7273H1164.88L1146.91 177.357C1144.89 189.554 1140.24 200.226 1132.94 209.374C1125.65 218.521 1116.36 225.654 1105.09 230.773C1093.82 235.837 1081.24 238.369 1067.36 238.369C1053.47 238.369 1041.76 235.837 1032.24 230.773C1022.71 225.654 1015.82 218.521 1011.57 209.374C1007.32 200.226 1006.21 189.554 1008.22 177.357L1026.19 68.7273H1061.56L1044 174.335C1043.02 180.705 1043.51 186.368 1045.47 191.323C1047.48 196.278 1050.8 200.171 1055.43 203.003C1060.06 205.834 1065.78 207.25 1072.58 207.25C1079.44 207.25 1085.65 205.834 1091.21 203.003C1096.81 200.171 1101.42 196.278 1105.01 191.323C1108.66 186.368 1110.97 180.705 1111.95 174.335L1129.51 68.7273ZM1293.8 117.325C1294.07 110.518 1292.08 105.264 1287.84 101.561C1283.64 97.8584 1277.3 96.0071 1268.81 96.0071C1263.03 96.0071 1258.03 96.8239 1253.78 98.4574C1249.53 100.036 1246.13 102.242 1243.57 105.073C1241.06 107.85 1239.51 111.063 1238.91 114.711C1238.31 117.706 1238.5 120.319 1239.48 122.552C1240.52 124.784 1242.13 126.717 1244.3 128.351C1246.54 129.93 1249.18 131.318 1252.23 132.516C1255.28 133.66 1258.52 134.64 1261.95 135.457L1276.32 139.05C1283.34 140.684 1289.66 142.862 1295.27 145.585C1300.93 148.307 1305.67 151.656 1309.48 155.631C1313.35 159.606 1316.07 164.288 1317.65 169.679C1319.23 175.07 1319.45 181.25 1318.3 188.219C1316.56 198.456 1312.5 207.332 1306.13 214.846C1299.76 222.306 1291.4 228.105 1281.06 232.243C1270.71 236.327 1258.73 238.369 1245.12 238.369C1231.62 238.369 1220.21 236.299 1210.9 232.161C1201.59 228.023 1194.81 221.897 1190.56 213.784C1186.37 205.616 1185.12 195.516 1186.8 183.482H1221.03C1220.43 189.091 1221.24 193.773 1223.48 197.531C1225.76 201.233 1229.17 204.037 1233.69 205.943C1238.21 207.795 1243.51 208.72 1249.61 208.72C1255.66 208.72 1261.02 207.849 1265.7 206.107C1270.44 204.364 1274.28 201.941 1277.22 198.837C1280.16 195.734 1281.96 192.167 1282.61 188.138C1283.26 184.381 1282.69 181.223 1280.89 178.663C1279.1 176.104 1276.21 173.926 1272.24 172.129C1268.32 170.278 1263.44 168.644 1257.62 167.229L1240.14 162.655C1226.63 159.224 1216.42 153.861 1209.51 146.565C1202.59 139.268 1200.12 129.44 1202.08 117.08C1203.82 106.952 1208.04 98.1035 1214.74 90.5348C1221.49 82.9117 1229.98 77.0038 1240.22 72.8111C1250.51 68.5639 1261.76 66.4403 1273.95 66.4403C1286.37 66.4403 1296.85 68.5911 1305.4 72.8928C1313.95 77.1399 1320.18 83.075 1324.1 90.6981C1328.02 98.3213 1329.22 107.197 1327.69 117.325H1293.8Z" fill="white"/>
</g>
<defs>
<clipPath id="clip0_1_2">
<rect width="1333" height="288" fill="white"/>
</clipPath>
</defs>
</svg>
